<svg version="1.2" xmlns="http://www.w3.org/2000/svg" viewBox="90 230 340 120" width="100%" height="100%">
	<style>
		.s0 { fill: #ffffff } 
		.s1 { fill: #ed2e29 } 
		.s2 { fill: #ffffff } 
		.s3 { fill: #f5852a } 
	</style>
	<g id="Livello 1">
		<g id="&lt;Group&gt;">
			<path id="&lt;Compound Path&gt;" class="s0" d="m222.37 301.47l-7.33-11.88q7.15-1.62 11.31-6.25 4.15-4.63 4.15-11.98 0-5.35-2.1-9.07-2.1-3.72-5.59-6.01-3.48-2.29-7.97-3.29-4.48-1.01-9.25-1.01h-23.48v67.57h12.02v-28.63h8.78l9.01 16.47c1.97-3.54 5.75-5.93 10.09-5.93q0.18 0 0.36 0.01zm-13.25-20.76q-2.58 0.38-5.16 0.38h-9.83v-18.99h10.88q2.3 0 4.73 0.38 2.43 0.38 4.34 1.43 1.91 1.05 3.15 2.82 1.24 1.77 1.24 4.53 0 3.06-1.33 5.01-1.34 1.96-3.39 3.01-2.06 1.05-4.63 1.43z"/>
			<path id="&lt;Path&gt;" class="s1" d="m222.01 306.01c-3.86 0-6.99 3.13-6.99 6.99 0 3.86 3.13 6.99 6.99 6.99 3.86 0 6.99-3.13 6.99-6.99 0-3.86-3.13-6.99-6.99-6.99z"/>
		</g>
		<g id="&lt;Group&gt;">
			<path id="&lt;Path&gt;" class="s0" d="m139.62 278.59c-3.85 0-6.98 3.13-6.98 6.98 0 3.86 3.13 6.98 6.98 6.98 3.86 0 6.98-3.12 6.98-6.98 0-3.85-3.12-6.98-6.98-6.98z"/>
			<path id="&lt;Compound Path&gt;" class="s0" d="m175.12 285.57c0-19.61-15.89-35.5-35.5-35.5-19.61 0-35.5 15.89-35.5 35.5 0 19.61 15.89 35.5 35.5 35.5 3.8 0 7.46-0.61 10.89-1.71 12.44 0 24.61 0 24.61 0v-9.74c0 0-3.97 0-9.44 0 5.85-6.33 9.44-14.76 9.44-24.05zm-35.5 23.28c-12.86 0-23.28-10.42-23.28-23.28 0-12.86 10.42-23.28 23.28-23.28 12.86 0 23.28 10.42 23.28 23.28 0 12.86-10.42 23.28-23.28 23.28z"/>
		</g>
		<g id="&lt;Group&gt;">
		</g>
		<g id="&lt;Group&gt;">
			<path id="&lt;Path&gt;" class="s2" d="m316.18 289.86c-3.35 0-6.06 2.72-6.06 6.06 0 3.35 2.71 6.06 6.06 6.06 3.34 0 6.06-2.71 6.06-6.06 0-3.34-2.72-6.06-6.06-6.06z"/>
			<path id="&lt;Compound Path&gt;" class="s2" d="m316.18 270.79c-13.88 0-25.13 11.25-25.13 25.13 0 13.88 11.25 25.13 25.13 25.13 13.88 0 25.13-11.25 25.13-25.13 0-13.88-11.25-25.13-25.13-25.13zm0 39.82c-8.11 0-14.69-6.58-14.69-14.69 0-8.11 6.58-14.69 14.69-14.69 8.11 0 14.69 6.58 14.69 14.69 0 8.11-6.58 14.69-14.69 14.69z"/>
		</g>
		<g id="&lt;Group&gt;">
			<path id="&lt;Compound Path&gt;" class="s2" d="m286.04 285.69q-1.68-4.55-4.75-7.92-3.07-3.37-7.33-5.3-4.26-1.93-9.31-1.93-3.27 0-5.89 0.74-2.63 0.75-4.71 1.88-2.08 1.14-3.51 2.58-1.44 1.44-2.33 2.82h-0.3v-6.63h-11.39v57.54c1.68-1.25 3.73-2.03 5.99-2.03 2.21 0 4.24 0.75 5.9 1.96v-16.27h0.2q2.27 3.56 6.48 5.64 4.21 2.08 9.26 2.08 5.45 0 9.76-2.03 4.31-2.03 7.33-5.44 3.02-3.42 4.65-8.03 1.64-4.6 1.64-9.85 0-5.25-1.69-9.81zm-9.1 15.36q-0.85 2.77-2.53 4.95-1.69 2.18-4.26 3.56-2.57 1.39-6.04 1.39-3.27 0-5.84-1.34-2.58-1.33-4.41-3.51-1.83-2.18-2.77-4.91-0.95-2.72-0.94-5.49-0.01-2.77 0.94-5.55 0.94-2.77 2.77-4.95 1.83-2.18 4.41-3.57 2.57-1.38 5.84-1.38 3.47 0 6.04 1.33 2.57 1.34 4.26 3.52 1.68 2.18 2.53 4.9 0.84 2.73 0.84 5.5 0 2.77-0.84 5.55z"/>
			<path id="&lt;Path&gt;" class="s3" d="m242.05 331.27c-3.38 0-6.11 2.73-6.11 6.11 0 3.38 2.73 6.12 6.11 6.12 3.38 0 6.12-2.74 6.12-6.12 0-3.38-2.74-6.11-6.12-6.11z"/>
			<path id="&lt;Compound Path&gt; copy 2" class="s2" d="m395.04 285.69q-1.68-4.55-4.75-7.92-3.07-3.37-7.33-5.3-4.26-1.93-9.31-1.93-3.27 0-5.89 0.74-2.63 0.75-4.71 1.88-2.08 1.14-3.51 2.58-1.44 1.44-2.33 2.82h-0.3v-6.63h-11.39v57.54c1.68-1.25 3.73-2.03 5.99-2.03 2.21 0 4.24 0.75 5.9 1.96v-16.27h0.2q2.27 3.56 6.48 5.64 4.21 2.08 9.26 2.08 5.45 0 9.76-2.03 4.31-2.03 7.33-5.44 3.02-3.42 4.65-8.03 1.64-4.6 1.64-9.85 0-5.25-1.69-9.81zm-9.1 15.36q-0.85 2.77-2.53 4.95-1.69 2.18-4.26 3.56-2.57 1.39-6.04 1.39-3.27 0-5.84-1.34-2.58-1.33-4.41-3.51-1.83-2.18-2.77-4.91-0.95-2.72-0.94-5.49-0.01-2.77 0.94-5.55 0.94-2.77 2.77-4.95 1.83-2.18 4.41-3.57 2.57-1.38 5.84-1.38 3.47 0 6.04 1.33 2.57 1.34 4.26 3.52 1.68 2.18 2.53 4.9 0.84 2.73 0.84 5.5 0 2.77-0.84 5.55z"/>
			<path id="&lt;Path&gt; copy" class="s2" d="m351.51 331.4c-3.35 0-6.07 2.72-6.07 6.07 0 3.35 2.72 6.06 6.07 6.06 3.35 0 6.06-2.71 6.06-6.06 0-3.35-2.71-6.07-6.06-6.07z"/>
		</g>
		<g id="&lt;Group&gt;">
		</g>
		<g id="&lt;Group&gt;">
		</g>
	</g>
</svg>
